<svg version="1.1" id="Layer_1" xmlns="http://www.w3.org/2000/svg" xmlns:xlink="http://www.w3.org/1999/xlink" x="0px" y="0px"
	 width="100%" viewBox="0 0 115 150" enable-background="new 0 0 115 150" xml:space="preserve">
<path fill="#FEFEFE" opacity="1.000000" stroke="none" 
	d="
M86.000000,1.000000 
	C88.041664,1.000000 90.083336,1.000000 92.234406,1.253777 
	C95.134239,5.092727 99.324867,8.329470 100.327705,12.359470 
	C101.364182,16.524706 104.053680,19.040279 105.880936,22.342655 
	C108.523956,27.119335 111.255241,31.848516 114.040695,36.543476 
	C114.423790,37.189182 115.333885,37.522213 116.000000,38.000000 
	C116.000000,47.020893 116.000000,56.041790 115.673401,65.232529 
	C114.425377,67.577843 113.564774,69.781479 112.572464,71.924103 
	C107.009911,83.935081 96.134033,89.991951 85.258636,95.900238 
	C77.984154,99.852249 70.423653,103.277802 63.024292,106.923447 
	C63.057434,106.907959 63.070686,106.835991 62.679192,106.838730 
	C53.788994,109.330353 47.930443,115.374458 42.231262,121.974144 
	C42.371082,115.665695 42.586887,109.594170 43.820442,103.736992 
	C45.301830,96.703026 47.963051,89.922668 49.556030,82.905968 
	C52.600357,69.496445 48.921619,61.499561 35.738499,59.227863 
	C23.881460,57.184673 14.037957,52.539207 6.077888,43.592152 
	C4.735423,42.083233 2.709919,41.182003 1.000000,40.000000 
	C1.000000,37.299988 1.000000,34.599972 1.301143,31.739038 
	C4.198691,29.804598 6.626857,27.685627 9.423642,26.323549 
	C17.226923,22.523233 25.844604,20.015121 32.938465,15.218674 
	C46.935944,5.754411 61.529160,1.362471 78.294777,4.909501 
	C81.489807,5.585459 84.796379,4.982220 86.000000,1.000000 
z"/>
<path fill="#000000" opacity="1.000000" stroke="none" 
	d="
M1.000000,40.468658 
	C2.709919,41.182003 4.735423,42.083233 6.077888,43.592152 
	C14.037957,52.539207 23.881460,57.184673 35.738499,59.227863 
	C48.921619,61.499561 52.600357,69.496445 49.556030,82.905968 
	C47.963051,89.922668 45.301830,96.703026 43.820442,103.736992 
	C42.586887,109.594170 42.371082,115.665695 42.231262,121.974144 
	C47.930443,115.374458 53.788994,109.330353 62.961487,107.169167 
	C62.480328,108.325607 61.400986,109.295319 60.158894,109.961601 
	C45.298378,117.933075 41.991898,135.217163 47.034271,146.596069 
	C49.617096,143.380661 51.973904,139.080185 55.535828,136.354630 
	C60.093262,132.867340 65.550041,130.504745 70.749847,127.920181 
	C77.517059,124.556519 85.504799,122.718224 91.020370,117.964539 
	C101.770935,108.699005 107.384178,95.710060 112.485031,81.400307 
	C109.385689,84.172806 107.242760,86.227951 104.957344,88.110062 
	C95.389694,95.989342 83.634445,99.433678 72.429192,103.964699 
	C69.380737,105.197380 66.142357,105.960373 62.991146,106.938934 
	C70.423653,103.277802 77.984154,99.852249 85.258636,95.900238 
	C96.134033,89.991951 107.009911,83.935081 112.572464,71.924103 
	C113.564774,69.781479 114.425377,67.577843 115.673401,65.701187 
	C116.000000,94.293434 116.000000,122.586861 116.000000,150.940155 
	C77.760628,150.940155 39.521137,150.940155 1.000000,150.940155 
	C1.000000,114.312920 1.000000,77.625114 1.000000,40.468658 
z"/>
<path fill="#000000" opacity="1.000000" stroke="none" 
	d="
M85.531342,1.000000 
	C84.796379,4.982220 81.489807,5.585459 78.294777,4.909501 
	C61.529160,1.362471 46.935944,5.754411 32.938465,15.218674 
	C25.844604,20.015121 17.226923,22.523233 9.423642,26.323549 
	C6.626857,27.685627 4.198691,29.804598 1.301143,31.289059 
	C1.000000,21.038195 1.000000,11.076388 1.000000,1.000000 
	C29.020800,1.000000 57.041740,1.000000 85.531342,1.000000 
z"/>
<path fill="#000000" opacity="1.000000" stroke="none" 
	d="
M116.000000,37.531342 
	C115.333885,37.522213 114.423790,37.189182 114.040695,36.543476 
	C111.255241,31.848516 108.523956,27.119335 105.880936,22.342655 
	C104.053680,19.040279 101.364182,16.524706 100.327705,12.359470 
	C99.324867,8.329470 95.134239,5.092727 92.671906,1.253777 
	C100.610313,1.000000 108.220634,1.000000 116.000000,1.000000 
	C116.000000,13.020459 116.000000,25.041571 116.000000,37.531342 
z"/>
<path fill="#FDFDFD" opacity="1.000000" stroke="none" 
	d="
M63.024292,106.923447 
	C66.142357,105.960373 69.380737,105.197380 72.429192,103.964699 
	C83.634445,99.433678 95.389694,95.989342 104.957344,88.110062 
	C107.242760,86.227951 109.385689,84.172806 112.485031,81.400307 
	C107.384178,95.710060 101.770935,108.699005 91.020370,117.964539 
	C85.504799,122.718224 77.517059,124.556519 70.749847,127.920181 
	C65.550041,130.504745 60.093262,132.867340 55.535828,136.354630 
	C51.973904,139.080185 49.617096,143.380661 47.034271,146.596069 
	C41.991898,135.217163 45.298378,117.933075 60.158894,109.961601 
	C61.400986,109.295319 62.480328,108.325607 63.352982,107.166428 
	C63.070686,106.835991 63.057434,106.907959 63.024292,106.923447 
z"/>
</svg>